# xmcd CD database file
#
# Track frame offsets:
#	150
#	3316
#	17767
#	29689
#	30478
#	43313
#	59684
#	74855
#	89596
#	94013
#	109948
#	121105
#	123689
#	134161
#	146460
#	158116
#	167885
#	182413
#	196644
#	212633
#	228069
#	242061
#	257482
#	274677
#	289019
#	303772
#	318407
#	332598
#
# Disc length: 4638 seconds
#
# Revision: 0
# Processed by: cddbd v1.5.2PL0 Copyright (c) Steve Scherf et al.
# Submitted via: CDex 1.70beta2
#
DISCID=95121c1c
DTITLE=小川知子 - ゆうべの秘密、初恋のひと
DYEAR=2006
DGENRE=歌謡曲
TTITLE0=ナレーション
TTITLE1=ゆうべの秘密
TTITLE2=あなたに夢中なの
TTITLE3=ナレーション
TTITLE4=しあわせの匂い
TTITLE5=だから許して
TTITLE6=遅くなってもいいの
TTITLE7=あなたの髪
TTITLE8=ナレーション
TTITLE9=恋のときめき
TTITLE10=ふたりだけの雨の夜
TTITLE11=ナレーション
TTITLE12=サニー
TTITLE13=カーザ・ビアンカ
TTITLE14=サマー・サンバ
TTITLE15=Somebody To Love
TTITLE16=初恋のひと
TTITLE17=恋のなごり
TTITLE18=誰もいない処で
TTITLE19=ひとりの恋
TTITLE20=霧よいつまでも
TTITLE21=ふたりになりたい
TTITLE22=悲しき天使
TTITLE23=オブ・ラ・ディ・オブ・ラ・ダ
TTITLE24=ホリディー
TTITLE25=Going Out Of My Head
TTITLE26=恋の神話
TTITLE27=愛の夜明け
EXTD=YEAR: 2006
EXTT0=
EXTT1=
EXTT2=
EXTT3=
EXTT4=
EXTT5=
EXTT6=
EXTT7=
EXTT8=
EXTT9=
EXTT10=
EXTT11=
EXTT12=
EXTT13=
EXTT14=
EXTT15=
EXTT16=
EXTT17=
EXTT18=
EXTT19=
EXTT20=
EXTT21=
EXTT22=
EXTT23=
EXTT24=
EXTT25=
EXTT26=
EXTT27=
PLAYORDER=
